<?xml version="1.0" encoding="utf-8"?>
<!-- Generator: Adobe Illustrator 21.0.2, SVG Export Plug-In . SVG Version: 6.00 Build 0)  -->
<svg version="1.1" id="Highlight_main" xmlns="http://www.w3.org/2000/svg" xmlns:xlink="http://www.w3.org/1999/xlink" x="0px"
	 y="0px" viewBox="0 0 838.8 597.5" style="enable-background:new 0 0 838.8 597.5;" xml:space="preserve">
<style type="text/css">
	.st0{fill:#009FE3;}
	.st1{fill:#868686;mix-blend-mode:multiply;opacity:0.5;}
	.st2{opacity:0.5;fill:#FFFFFF;}
	.st3{opacity:0.5;mix-blend-mode:hard-light;fill:url(#SVGID_1_);}
	.st4{opacity:0.25;fill:#FFFFFF;}
	.st5{fill:#868686;mix-blend-mode:multiply;opacity:0.5;}
	.st6{fill:url(#SVGID_2_);}
	.st7{fill:url(#SVGID_3_);}
	.st8{fill:url(#SVGID_4_);}
	.st9{fill:#F39200;}
	.st10{opacity:0.25;mix-blend-mode:multiply;fill:url(#SVGID_5_);}
	.st11{fill:#868686;mix-blend-mode:multiply;opacity:0.25;}
	.st12{opacity:0.25;mix-blend-mode:multiply;fill:url(#SVGID_6_);}
	.st13{opacity:0.25;mix-blend-mode:multiply;fill:url(#SVGID_7_);}
	.st14{fill:url(#SVGID_8_);}
	.st15{fill:url(#SVGID_9_);}
	.st16{fill:url(#SVGID_10_);}
	.st17{opacity:0.5;mix-blend-mode:multiply;fill:url(#SVGID_11_);}
	.st18{fill:#C2096C;}
	.st19{fill:#868686;mix-blend-mode:multiply;opacity:0.5;}
	.st20{opacity:0.5;mix-blend-mode:screen;fill:url(#SVGID_12_);}
	.st21{fill:#C3006B;}
	.st22{fill:#FFFFFF;}
	.st23{fill:url(#SVGID_13_);}
	.st24{fill:#868686;mix-blend-mode:multiply;opacity:0.5;}
	.st25{opacity:0.5;mix-blend-mode:multiply;fill:url(#SVGID_14_);}
	.st26{opacity:0.5;mix-blend-mode:screen;fill:url(#SVGID_15_);}
	.st27{opacity:0.5;mix-blend-mode:multiply;fill:url(#SVGID_16_);}
	.st28{opacity:0.5;mix-blend-mode:screen;fill:url(#SVGID_17_);}
</style>

<g>
	<path class="st0" d="M282.5,220.8l-40,23.2c0,0,0,0,0.1,0c-7.3,4.2-11.8,13.1-11.8,25.8l40.2,23.2l40-23.2l0.1-46.2
		C299.9,217.2,289.8,216.6,282.5,220.8z"/>
	<path class="st2" d="M242.5,244.1l40-23.2c7.3-4.2,17.4-3.7,28.6,2.8l-40,23.2C259.9,240.4,249.8,239.8,242.5,244.1z"/>
	<polygon class="st1" points="271.1,246.9 311.1,223.6 310.9,269.9 271,293.1 	"/>
</g>
<g>
	<path class="st0" d="M230.8,326.5c-0.1,25.5,17.9,56.6,40.1,69.4l40-23.2l0.1-46.2l-40.2-23.2L230.8,326.5z"/>
	<polygon class="st1" points="271,349.8 310.9,326.5 310.8,372.8 270.8,396 	"/>
	<polygon class="st2" points="230.8,326.5 270.7,303.3 310.9,326.5 271,349.8 	"/>
</g>
<g>
	<path class="st0" d="M320.1,378.1l-0.1,46.2c11.5,6.6,21.9,7.1,29.2,2.4c-0.2,0.1-0.4,0.3-0.6,0.4l40-23.2
		c7.2-4.2,11.7-13.1,11.7-25.8L360,354.9L320.1,378.1z"/>
	<polygon class="st2" points="320.1,378.1 360,354.9 400.2,378.1 360.3,401.3 	"/>
	<path class="st1" d="M388.5,403.9l-40,23.2c7.2-4.2,11.7-13.1,11.7-25.8l40-23.2C400.2,390.8,395.7,399.7,388.5,403.9z"/>
</g>
<g>
	<path class="st0" d="M400.2,321.4c0.1-25.5-17.9-56.6-40.1-69.4l-40,23.2l-0.1,46.2l40.2,23.2L400.2,321.4z"/>
	<linearGradient id="SVGID_1_" gradientUnits="userSpaceOnUse" x1="344.3148" y1="261.1325" x2="384.4698" y2="330.6829">
		<stop  offset="0" style="stop-color:#FFFFFF"/>
		<stop  offset="1" style="stop-color:#000000"/>
	</linearGradient>
	<path class="st3" d="M320.2,275.2l40-23.2c22.2,12.8,40.2,43.9,40.1,69.4l-40,23.2C360.4,319.1,342.4,288,320.2,275.2z"/>
</g>
</svg>
